<?xml version="1.0" standalone="no"?>
<!DOCTYPE svg PUBLIC "-//W3C//DTD SVG 20010904//EN"
 "http://www.w3.org/TR/2001/REC-SVG-20010904/DTD/svg10.dtd">
<svg version="1.0" xmlns="http://www.w3.org/2000/svg"
 width="429.000000pt" height="327.000000pt" viewBox="0 0 429.000000 327.000000"
 preserveAspectRatio="xMidYMid meet">
<metadata>
Created by potrace 1.16, written by Peter Selinger 2001-2019
</metadata>
<g transform="translate(0.000000,327.000000) scale(0.100000,-0.100000)"
fill="#000000" stroke="none">
<path d="M2090 2475 l0 -115 115 0 115 0 0 -660 0 -660 -90 0 -90 0 0 -30 c0
-25 -4 -30 -25 -30 l-25 0 0 -115 0 -115 675 0 675 0 0 25 c0 20 5 25 26 25
l27 0 -5 380 c-3 210 -8 384 -12 387 -3 3 -45 0 -93 -8 -49 -7 -107 -12 -130
-11 l-43 2 0 -224 c0 -123 -3 -238 -6 -255 l-6 -31 -269 0 -269 0 -2 353 c-1
193 -4 283 -5 200 -2 -84 -7 -153 -11 -153 -4 0 -59 -9 -122 -20 -63 -11 -121
-20 -127 -20 -10 0 -13 109 -13 510 l0 510 -120 0 -120 0 0 85 c0 84 0 85 -25
85 l-25 0 0 -115z"/>
<path d="M963 2438 c-39 -41 -70 -101 -88 -169 -48 -181 -15 -363 86 -473 100
-110 195 -157 488 -241 105 -30 213 -66 241 -80 120 -61 171 -158 150 -284 -6
-37 -20 -82 -31 -100 -19 -32 -91 -71 -130 -71 -10 0 -19 -3 -19 -7 0 -9 -157
-9 -166 0 -3 3 -12 3 -20 0 -8 -3 -14 0 -14 7 0 7 -7 10 -15 6 -8 -3 -15 -1
-15 4 0 6 -3 9 -7 8 -16 -4 -88 34 -129 67 -23 19 -52 35 -65 35 -20 0 -238
-34 -286 -45 l-23 -5 0 160 0 160 -30 0 -30 0 0 -335 0 -335 121 0 121 0 -4
31 c-4 28 -2 30 18 26 17 -3 25 1 30 15 3 10 9 18 12 16 4 -2 45 -22 92 -45
112 -56 182 -73 307 -73 129 0 188 12 288 60 60 29 97 55 144 103 72 74 133
156 125 168 -3 5 0 9 6 9 6 0 8 4 5 10 -3 5 -2 10 4 10 8 0 24 46 26 75 0 6 4
16 8 23 5 6 5 17 2 22 -4 6 -1 17 5 25 17 20 3 75 -18 75 -15 0 -55 -6 -222
-34 -24 -4 -25 -3 -25 58 -1 49 -7 72 -28 108 -55 95 -109 123 -387 203 -118
34 -231 73 -287 100 -167 82 -258 192 -284 349 -20 121 9 293 62 368 27 37 20
35 -18 -4z"/>
<path d="M1311 2411 c-33 -12 -69 -34 -95 -61 l-41 -42 40 20 c87 43 217 54
320 27 85 -23 149 -61 211 -128 l54 -58 0 -70 0 -69 121 0 120 0 -3 28 c-3 27
-3 27 -90 30 l-88 3 0 69 0 69 -56 60 c-40 44 -78 72 -132 98 -73 36 -81 38
-191 41 -94 2 -126 -1 -170 -17z"/>
</g>
</svg>
